<svg width="355" height="360" viewBox="0 0 355 360" fill="none" xmlns="http://www.w3.org/2000/svg">
<path d="M152.448 28.8361C150.981 29.0974 149.474 29.0317 148.035 28.6439C146.792 28.3078 145.668 27.6289 144.792 26.6848C143.936 25.7329 143.386 24.5462 143.212 23.2783C143.148 23.0592 143.134 22.8287 143.17 22.6035C143.207 22.3783 143.293 22.164 143.422 21.9761C143.726 21.6899 144.118 21.514 144.533 21.4765C144.906 21.411 145.29 21.4365 145.651 21.5511C145.82 21.6093 145.97 21.7139 146.082 21.8529C146.195 21.9919 146.266 22.1598 146.288 22.3374C146.421 23.1352 146.747 23.8885 147.237 24.5319C147.721 25.1544 148.382 25.6166 149.133 25.858C150.03 26.1309 150.979 26.1827 151.9 26.0087C152.569 25.9452 153.219 25.7468 153.809 25.4254C154.399 25.1041 154.918 24.6665 155.334 24.1391C155.719 23.5147 155.976 22.8204 156.09 22.0963C156.205 21.3722 156.175 20.6325 156.002 19.9201L153.406 3.3403L148.53 4.10257C148.37 4.13123 148.206 4.11702 148.054 4.06139C147.901 4.00576 147.767 3.91071 147.663 3.78596C147.421 3.51308 147.265 3.17434 147.215 2.81271C147.165 2.48185 147.203 2.14359 147.327 1.83261C147.387 1.67563 147.49 1.53857 147.623 1.43702C147.757 1.33547 147.917 1.2735 148.084 1.25818L154.688 0.226012C155.036 0.166868 155.394 0.210893 155.717 0.352653C155.873 0.418846 156.008 0.525523 156.108 0.661572C156.209 0.797622 156.271 0.958065 156.288 1.12619L159.153 19.4285C159.489 21.0708 159.377 22.7733 158.827 24.357C158.344 25.6057 157.48 26.6705 156.357 27.3998C155.17 28.15 153.838 28.6396 152.448 28.8361Z" fill="#144E94"/>
<path d="M176.423 26.9281C175.121 26.9548 173.837 26.6186 172.715 25.9574C171.586 25.308 170.63 24.3947 169.931 23.2956C169.236 22.2233 168.859 20.9761 168.843 19.6985L168.782 15.8685C168.754 14.5968 169.083 13.3428 169.733 12.2486C170.384 11.1357 171.305 10.2041 172.41 9.53951C173.531 8.85228 174.818 8.48319 176.133 8.47189C177.443 8.44057 178.738 8.76186 179.881 9.40212C181.007 10.022 181.963 10.909 182.664 11.985C183.372 13.0691 183.752 14.3346 183.757 15.629L183.818 19.462C183.837 20.7315 183.498 21.9808 182.841 23.0673C182.179 24.1967 181.252 25.1479 180.14 25.8386C179.026 26.5402 177.739 26.9175 176.423 26.9281ZM176.377 24.087C177.157 24.0841 177.917 23.8483 178.562 23.4099C179.206 22.9722 179.736 22.387 180.108 21.7031C180.487 21.0347 180.682 20.2776 180.671 19.5093L180.61 15.6794C180.599 14.9275 180.385 14.1926 179.992 13.5514C179.597 12.8908 179.051 12.3335 178.398 11.9256C177.736 11.506 176.965 11.2927 176.182 11.3129C175.402 11.3149 174.641 11.5507 173.997 11.99C173.364 12.4199 172.841 12.9943 172.473 13.6656C172.103 14.3219 171.915 15.065 171.928 15.8182L171.989 19.6511C172.002 20.4168 172.213 21.1661 172.602 21.8261C172.987 22.5002 173.533 23.0684 174.192 23.4798C174.845 23.8941 175.607 24.1054 176.38 24.087L176.377 24.087Z" fill="#144E94"/>
<path d="M196.421 4.79802C196.165 4.77463 195.917 4.70106 195.69 4.5815C195.462 4.46194 195.261 4.29876 195.097 4.1013C194.934 3.92409 194.811 3.71443 194.736 3.48615C194.66 3.25788 194.634 3.01618 194.658 2.777C194.683 2.53895 194.76 2.30918 194.883 2.10392C195.006 1.89866 195.173 1.72292 195.371 1.5891C195.786 1.28648 196.302 1.15454 196.811 1.22049C197.318 1.26303 197.788 1.50291 198.119 1.88839C198.279 2.06402 198.4 2.27202 198.473 2.49828C198.546 2.72455 198.569 2.9638 198.541 3.19985C198.515 3.43722 198.439 3.66651 198.319 3.8732C198.199 4.07989 198.038 4.25947 197.845 4.40059C197.647 4.55926 197.418 4.67626 197.174 4.74455C196.929 4.81284 196.673 4.83103 196.421 4.79802ZM193.917 27.5431C193.517 27.515 193.138 27.3483 192.848 27.0716C192.729 26.9705 192.635 26.8431 192.574 26.6995C192.512 26.5558 192.486 26.3999 192.495 26.2441L194.198 10.6308C194.214 10.4719 194.27 10.3197 194.362 10.1891C194.454 10.0585 194.578 9.95395 194.722 9.88559C195.075 9.71242 195.473 9.6508 195.862 9.70894C196.259 9.73916 196.639 9.88507 196.953 10.1286C197.085 10.2235 197.189 10.3515 197.254 10.4996C197.319 10.6477 197.344 10.8105 197.326 10.9714L195.623 26.5857C195.597 26.7418 195.534 26.8894 195.439 27.0164C195.345 27.1433 195.221 27.2459 195.079 27.3156C194.728 27.5195 194.319 27.5996 193.917 27.5431Z" fill="#144E94"/>
<path d="M206.038 29.2529C205.643 29.1785 205.287 28.969 205.03 28.6604C204.924 28.546 204.845 28.4085 204.801 28.2586C204.757 28.1087 204.749 27.9506 204.777 27.797L208.298 12.4829C208.332 12.3269 208.406 12.1823 208.512 12.0633C208.619 11.9442 208.754 11.8549 208.906 11.8038C209.277 11.6731 209.679 11.6584 210.059 11.7617C210.417 11.8316 210.743 12.014 210.99 12.2823C211.098 12.3968 211.175 12.5366 211.214 12.6887C211.254 12.8408 211.254 13.0004 211.216 13.1528L210.868 14.6671C211.502 13.9868 212.288 13.4661 213.163 13.1475C214.223 12.7589 215.377 12.7066 216.469 12.9978C217.624 13.2555 218.676 13.8505 219.493 14.7071C220.353 15.6054 220.974 16.7056 221.298 17.9064C221.621 19.1072 221.637 20.3701 221.344 21.5787L219.157 31.0932C219.124 31.2649 219.043 31.4237 218.923 31.5511C218.803 31.6784 218.649 31.7691 218.479 31.8125C218.111 31.9234 217.72 31.9342 217.346 31.8439C216.987 31.76 216.656 31.5835 216.386 31.332C216.251 31.2197 216.151 31.0712 216.098 30.9039C216.044 30.7367 216.04 30.5576 216.085 30.388L218.271 20.8813C218.44 20.1479 218.407 19.3825 218.177 18.6659C217.951 17.9319 217.556 17.2609 217.024 16.7067C216.495 16.1469 215.81 15.7581 215.059 15.5904C214.384 15.4394 213.681 15.4671 213.021 15.671C212.314 15.8791 211.673 16.2654 211.159 16.7928C210.583 17.404 210.192 18.1657 210.031 18.9897L207.844 28.5042C207.8 28.6562 207.72 28.7955 207.611 28.9105C207.502 29.0256 207.367 29.113 207.218 29.1657C206.845 29.3262 206.43 29.3569 206.038 29.2529Z" fill="#144E94"/>
<path d="M245.284 42.8899C244.091 42.3104 243.08 41.4148 242.361 40.3006C241.653 39.2146 241.228 37.969 241.123 36.677C241.007 35.4221 241.243 34.1596 241.806 33.0316L246.188 24.2435C246.268 24.1052 246.38 23.9883 246.515 23.9028C246.65 23.8173 246.803 23.7657 246.962 23.7525C247.355 23.6841 247.76 23.7473 248.113 23.9324C248.471 24.1004 248.761 24.3835 248.938 24.7364C249.02 24.8718 249.069 25.0249 249.08 25.1829C249.091 25.3409 249.065 25.4992 249.002 25.6449L244.62 34.433C244.284 35.1057 244.135 35.8561 244.188 36.606C244.236 37.3752 244.466 38.122 244.859 38.7846C245.254 39.4593 245.84 40.0017 246.543 40.3427C247.235 40.6982 248.017 40.8417 248.79 40.7552C249.553 40.6714 250.284 40.4013 250.918 39.9686C251.547 39.5523 252.056 38.9782 252.393 38.3038L256.793 29.4799C256.871 29.3397 256.983 29.2219 257.12 29.138C257.256 29.0542 257.412 29.0071 257.572 29.0014C257.96 28.9539 258.354 29.0247 258.7 29.2045C259.07 29.3664 259.376 29.6455 259.571 29.9987C259.649 30.132 259.693 30.2824 259.699 30.4366C259.706 30.5909 259.675 30.7445 259.608 30.884L255.209 39.7061C254.647 40.8464 253.774 41.8055 252.692 42.4734C251.6 43.1586 250.354 43.5618 249.068 43.6467C247.761 43.744 246.453 43.4823 245.284 42.8899Z" fill="#144E94"/>
<path d="M263.691 53.7262C262.785 53.1248 261.98 52.3838 261.306 51.5309C260.784 50.8881 260.386 50.1543 260.131 49.3665C260.032 49.1231 259.987 48.8606 260 48.5978C260.014 48.3351 260.085 48.0785 260.209 47.8465C260.333 47.6727 260.493 47.5271 260.678 47.4194C260.875 47.2982 261.096 47.2178 261.325 47.1831C261.529 47.1424 261.74 47.1835 261.914 47.2974C262.198 47.5277 262.395 47.8495 262.469 48.208C262.639 48.749 262.874 49.2675 263.169 49.7522C263.661 50.4928 264.307 51.1189 265.062 51.588C265.825 52.24 266.798 52.594 267.802 52.5843C268.116 52.552 268.42 52.453 268.693 52.2941C268.966 52.1351 269.202 51.9198 269.385 51.6625C269.586 51.4047 269.731 51.1075 269.81 50.7902C269.889 50.4729 269.9 50.1426 269.843 49.8206C269.691 49.165 269.398 48.5504 268.984 48.0196C268.537 47.421 268.053 46.8054 267.53 46.1729C267.017 45.5582 266.559 44.8999 266.16 44.2054C265.776 43.549 265.565 42.8059 265.547 42.0457C265.573 41.1616 265.877 40.3081 266.417 39.6072C266.91 38.9043 267.564 38.3289 268.324 37.9287C269.177 37.4829 270.141 37.2945 271.099 37.3862C272.348 37.5361 273.535 38.0159 274.538 38.7761C275.253 39.263 275.909 39.8303 276.495 40.4668C276.99 40.985 277.402 41.5757 277.718 42.2184C277.971 42.7692 277.994 43.1946 277.788 43.4947C277.658 43.657 277.499 43.7941 277.32 43.8994C277.097 44.0463 276.85 44.152 276.589 44.2114C276.469 44.2418 276.344 44.2459 276.222 44.2234C276.1 44.2008 275.985 44.1522 275.884 44.0807C275.645 43.886 275.452 43.6403 275.32 43.3617C275.087 42.9467 274.824 42.549 274.533 42.1719C274.14 41.6747 273.669 41.2438 273.139 40.8957C272.581 40.4737 271.925 40.2013 271.233 40.1047C270.728 40.0427 270.215 40.1188 269.749 40.3249C269.372 40.4948 269.046 40.7615 268.805 41.0979C268.632 41.3223 268.515 41.5848 268.464 41.8634C268.413 42.1421 268.43 42.4289 268.512 42.6999C268.723 43.3144 269.045 43.8849 269.462 44.383C269.926 44.9661 270.42 45.5723 270.943 46.2017C271.463 46.8261 271.911 47.5063 272.28 48.2299C272.646 48.9396 272.827 49.7301 272.806 50.5282C272.736 51.4829 272.388 52.3964 271.807 53.157C271.431 53.7502 270.923 54.2484 270.322 54.6124C269.722 54.9765 269.045 55.1965 268.345 55.2552C266.662 55.3068 265.015 54.7656 263.691 53.7262Z" fill="#144E94"/>
<path d="M273.752 65.2425C273.551 65.0667 273.405 64.8375 273.329 64.5817C273.283 64.4571 273.272 64.3223 273.297 64.1919C273.322 64.0615 273.383 63.9404 273.471 63.8417C273.564 63.7291 273.679 63.6371 273.81 63.5715L275.692 62.5745C275.517 62.2264 275.447 61.8352 275.49 61.4481C275.529 61.0581 275.687 60.6898 275.944 60.3934C276.109 60.1916 276.313 60.0253 276.544 59.9044C276.775 59.7835 277.028 59.7105 277.288 59.6898C277.544 59.6622 277.803 59.688 278.049 59.7656C278.294 59.8433 278.521 59.971 278.715 60.1408C279.108 60.4715 279.359 60.9408 279.416 61.4515C279.45 61.7203 279.425 61.9934 279.342 62.2516C279.26 62.5098 279.122 62.7467 278.938 62.9459C278.867 63.0239 278.79 63.0966 278.709 63.1633C278.526 63.3047 278.333 63.4317 278.132 63.5434C277.854 63.7056 277.443 63.9321 276.9 64.223C276.356 64.5139 275.627 64.8983 274.713 65.3764C274.554 65.4658 274.369 65.4945 274.191 65.4571C274.029 65.4233 273.878 65.3495 273.752 65.2425Z" fill="#144E94"/>
<path d="M297.603 85.4442C296.729 84.3614 296.092 83.1078 295.733 81.764C295.393 80.4585 295.474 79.0788 295.966 77.8225C296.633 76.2824 297.706 74.9526 299.071 73.9753L308.025 66.9084C309.294 65.805 310.844 65.0746 312.504 64.7981C313.846 64.6223 315.21 64.8683 316.407 65.5019C317.639 66.1682 318.717 67.0852 319.573 68.1937C320.537 69.3487 321.227 70.7067 321.591 72.166C321.888 73.3771 321.849 74.6463 321.478 75.837C321.111 76.9653 320.412 77.9565 319.471 78.681C319.295 78.8611 319.085 79.0042 318.853 79.1021C318.621 79.2 318.371 79.2507 318.119 79.2512C317.705 79.1396 317.346 78.8821 317.107 78.5262C316.831 78.2218 316.66 77.8367 316.62 77.4279C316.615 77.2673 316.646 77.1077 316.712 76.9612C316.778 76.8147 316.877 76.6852 317.001 76.5825C317.329 76.2912 317.626 75.9673 317.889 75.6158C318.211 75.1883 318.449 74.7037 318.59 74.1877C318.748 73.5773 318.747 72.9364 318.587 72.3265C318.349 71.4804 317.929 70.6964 317.356 70.0293C316.969 69.4673 316.473 68.9897 315.896 68.6252C315.319 68.2608 314.674 68.0172 314 67.9093C312.521 67.8616 311.084 68.4019 310.004 69.4118L301.049 76.4787C300.434 76.8837 299.907 77.4072 299.498 78.0186C299.088 78.6301 298.805 79.3171 298.665 80.0393C298.626 80.7323 298.725 81.4262 298.956 82.0806C299.188 82.735 299.548 83.3367 300.015 83.8508C300.519 84.5499 301.172 85.1291 301.926 85.5471C302.465 85.8296 303.071 85.9622 303.679 85.931C304.217 85.8917 304.743 85.7543 305.232 85.5257C305.675 85.3199 306.107 85.0916 306.527 84.8416C306.662 84.7409 306.819 84.6734 306.985 84.6447C307.152 84.616 307.322 84.6269 307.483 84.6764C307.846 84.8194 308.16 85.0651 308.385 85.3834C308.684 85.7027 308.853 86.1215 308.86 86.5584C308.737 87.0551 308.421 87.4826 307.983 87.7472C307.044 88.5035 305.901 88.9635 304.699 89.0686C303.432 89.1677 302.163 88.915 301.031 88.3385C299.683 87.6461 298.511 86.6563 297.603 85.4442Z" fill="#144E94"/>
<path d="M308.968 102.139C308.289 101.018 308.034 99.6917 308.25 98.3994C308.403 97.7103 308.713 97.0656 309.155 96.5149C309.597 95.9642 310.16 95.5221 310.8 95.2228C311.293 94.8983 311.846 94.6752 312.426 94.5665C313.006 94.4578 313.602 94.4657 314.18 94.5897C315.322 94.9289 316.341 95.5941 317.111 96.5035C318.137 97.6605 319.033 98.9265 319.783 100.279L320.685 101.858L321.37 101.467C322.021 101.096 322.599 100.61 323.078 100.034C323.562 99.4597 323.876 98.7611 323.982 98.0177C324.071 97.1533 323.862 96.2845 323.392 95.5539C323.059 94.9239 322.627 94.3513 322.113 93.858C321.779 93.5534 321.412 93.288 321.019 93.0668C320.756 92.9477 320.532 92.7572 320.372 92.5171C320.281 92.3579 320.237 92.1764 320.244 91.9932C320.251 91.81 320.31 91.6326 320.414 91.4812C320.595 91.1478 320.863 90.8689 321.188 90.6732C321.531 90.4779 321.982 90.5419 322.542 90.8652C323.179 91.2513 323.756 91.7275 324.257 92.279C324.833 92.8889 325.335 93.5648 325.752 94.2925C326.552 95.5424 326.964 97.0006 326.938 98.484C326.871 99.6894 326.443 100.847 325.71 101.806C324.96 102.776 324.022 103.585 322.951 104.183L314.522 108.992C314.384 109.067 314.23 109.108 314.072 109.112C313.915 109.116 313.759 109.083 313.616 109.015C313.252 108.853 312.954 108.572 312.773 108.217C312.581 107.9 312.504 107.526 312.556 107.159C312.57 107.002 312.621 106.851 312.704 106.717C312.788 106.584 312.902 106.472 313.037 106.391L314.353 105.64C313.326 105.429 312.334 105.074 311.407 104.585C310.371 104.026 309.523 103.176 308.968 102.139ZM311.642 101.762C312.023 102.417 312.574 102.957 313.238 103.325C313.906 103.714 314.646 103.968 315.413 104.07C316.052 104.187 316.711 104.089 317.289 103.793L319.001 102.816L318.352 101.681C317.857 100.807 317.304 99.9667 316.697 99.166C316.218 98.49 315.578 97.9441 314.834 97.5773C314.48 97.432 314.096 97.3767 313.715 97.4165C313.335 97.4562 312.97 97.5897 312.654 97.8049C312.289 97.9737 311.968 98.2245 311.716 98.5376C311.465 98.8508 311.288 99.2178 311.202 99.6102C311.09 100.355 311.245 101.116 311.638 101.759L311.642 101.762Z" fill="#144E94"/>
<path d="M317.899 119.012C317.736 118.652 317.703 118.246 317.807 117.864C317.838 117.711 317.905 117.568 318.002 117.445C318.099 117.322 318.223 117.224 318.365 117.157L332.899 111.177C333.046 111.114 333.206 111.091 333.365 111.109C333.524 111.127 333.675 111.186 333.804 111.28C334.122 111.502 334.364 111.816 334.499 112.18C334.652 112.516 334.693 112.892 334.617 113.253C334.587 113.408 334.517 113.551 334.416 113.672C334.315 113.792 334.185 113.885 334.038 113.942L332.406 114.614C333.029 114.683 333.639 114.847 334.213 115.099C334.841 115.374 335.418 115.752 335.919 116.219C336.461 116.723 336.884 117.341 337.157 118.028L337.645 119.212C337.706 119.365 337.733 119.53 337.723 119.694C337.713 119.859 337.666 120.019 337.585 120.163C337.42 120.494 337.137 120.751 336.791 120.883C336.456 121.029 336.077 121.044 335.73 120.926C335.572 120.88 335.426 120.8 335.303 120.69C335.18 120.581 335.082 120.445 335.019 120.293L334.53 119.109C334.214 118.353 333.692 117.702 333.023 117.23C332.299 116.712 331.454 116.388 330.57 116.29C329.54 116.186 328.501 116.354 327.556 116.776L319.563 120.065C319.413 120.116 319.253 120.132 319.096 120.109C318.939 120.087 318.79 120.028 318.661 119.936C318.31 119.722 318.042 119.397 317.899 119.012Z" fill="#144E94"/>
<path d="M325.309 141.527C324.893 140.081 324.815 138.558 325.081 137.077C325.319 135.762 325.913 134.537 326.8 133.536C327.72 132.53 328.92 131.821 330.246 131.5L334.062 130.486C335.282 130.153 336.572 130.179 337.778 130.56C339.002 130.937 340.112 131.615 341.006 132.53C341.934 133.471 342.594 134.641 342.92 135.921C343.254 137.133 343.274 138.41 342.98 139.632C342.698 140.828 342.114 141.933 341.285 142.841C340.419 143.78 339.296 144.442 338.055 144.747C337.343 145 336.57 145.028 335.841 144.826C335.358 144.645 334.963 144.286 334.739 143.822C334.505 143.335 334.319 142.827 334.182 142.305L332.045 134.274L330.924 134.572C330.302 134.712 329.721 134.994 329.227 135.398C328.733 135.801 328.341 136.314 328.08 136.895C327.536 138.182 327.464 139.619 327.878 140.953C328.045 141.706 328.369 142.416 328.829 143.036C329.152 143.438 329.51 143.811 329.898 144.151C330.18 144.362 330.39 144.656 330.499 144.99C330.566 145.229 330.541 145.484 330.43 145.706C330.323 145.928 330.17 146.125 329.98 146.284C329.823 146.424 329.637 146.529 329.434 146.59C329.205 146.612 328.973 146.587 328.753 146.517C328.534 146.447 328.331 146.332 328.157 146.181C327.522 145.72 326.983 145.141 326.568 144.476C325.989 143.569 325.563 142.573 325.309 141.527ZM334.083 133.732L335.881 140.488C335.958 140.944 336.156 141.372 336.454 141.727C336.606 141.82 336.778 141.875 336.956 141.889C337.135 141.902 337.313 141.872 337.478 141.803C338.192 141.618 338.845 141.246 339.369 140.727C339.901 140.204 340.29 139.554 340.498 138.837C340.716 138.079 340.717 137.275 340.499 136.517C340.313 135.795 339.945 135.131 339.432 134.589C338.919 134.047 338.276 133.644 337.564 133.418C336.856 133.197 336.098 133.186 335.384 133.387L334.083 133.732Z" fill="#144E94"/>
<path d="M329.254 163.203C329.052 161.712 329.194 160.194 329.671 158.767C330.096 157.5 330.862 156.373 331.883 155.51C332.939 154.647 334.229 154.119 335.587 153.992L339.51 153.538C340.766 153.385 342.039 153.597 343.177 154.147C344.333 154.697 345.334 155.527 346.087 156.562C346.869 157.627 347.353 158.88 347.492 160.194C347.646 161.441 347.482 162.707 347.015 163.874C346.563 165.018 345.826 166.027 344.875 166.806C343.882 167.61 342.675 168.104 341.403 168.226C340.662 168.375 339.893 168.291 339.201 167.986C338.749 167.737 338.41 167.325 338.255 166.833C338.094 166.318 337.983 165.788 337.923 165.251L336.967 156.997L335.815 157.13C335.179 157.178 334.563 157.374 334.016 157.702C333.47 158.03 333.007 158.481 332.665 159.019C331.941 160.214 331.662 161.626 331.88 163.006C331.936 163.775 332.154 164.524 332.52 165.204C332.781 165.648 333.082 166.069 333.417 166.461C333.666 166.711 333.831 167.031 333.89 167.378C333.922 167.624 333.861 167.873 333.719 168.076C333.581 168.281 333.401 168.454 333.191 168.584C333.014 168.7 332.815 168.777 332.606 168.808C332.376 168.797 332.15 168.739 331.943 168.637C331.736 168.536 331.551 168.394 331.401 168.219C330.84 167.672 330.389 167.021 330.074 166.303C329.632 165.322 329.355 164.274 329.254 163.203ZM339.062 156.754L339.867 163.698C339.877 164.161 340.011 164.613 340.254 165.007C340.391 165.121 340.554 165.201 340.728 165.24C340.903 165.279 341.084 165.275 341.257 165.23C341.99 165.15 342.69 164.876 343.283 164.438C343.885 163.997 344.364 163.409 344.673 162.731C344.999 162.012 345.115 161.216 345.01 160.435C344.929 159.693 344.661 158.983 344.232 158.373C343.802 157.763 343.224 157.272 342.552 156.945C341.883 156.624 341.135 156.504 340.399 156.599L339.062 156.754Z" fill="#144E94"/>
<path d="M330.452 179.07C330.445 178.675 330.575 178.289 330.822 177.979C330.911 177.851 331.029 177.745 331.167 177.671C331.305 177.596 331.458 177.555 331.614 177.55L347.332 177.801C347.492 177.802 347.649 177.844 347.787 177.923C347.926 178.003 348.042 178.116 348.123 178.254C348.327 178.584 348.425 178.968 348.405 179.355C348.412 179.724 348.302 180.086 348.089 180.388C347.999 180.518 347.879 180.622 347.738 180.693C347.598 180.764 347.441 180.798 347.284 180.792L345.518 180.764C346.064 181.074 346.559 181.465 346.987 181.924C347.455 182.424 347.835 183 348.111 183.627C348.409 184.304 348.553 185.038 348.531 185.778L348.511 187.059C348.507 187.223 348.466 187.385 348.392 187.532C348.317 187.679 348.211 187.808 348.08 187.908C347.797 188.147 347.436 188.271 347.066 188.256C346.699 188.257 346.346 188.122 346.074 187.876C345.947 187.772 345.844 187.64 345.775 187.49C345.705 187.341 345.669 187.178 345.671 187.013L345.691 185.732C345.7 184.914 345.478 184.109 345.05 183.411C344.591 182.648 343.943 182.017 343.168 181.578C342.264 181.075 341.243 180.818 340.208 180.832L331.564 180.694C331.406 180.683 331.253 180.633 331.117 180.551C330.982 180.469 330.869 180.355 330.786 180.22C330.549 179.885 330.431 179.48 330.452 179.07Z" fill="#144E94"/>
<path d="M327.657 209.313C327.732 208.971 327.905 208.658 328.153 208.411C328.272 208.289 328.421 208.202 328.585 208.158C328.749 208.114 328.922 208.115 329.085 208.161L353.93 213.806C354.101 213.835 354.26 213.915 354.386 214.035C354.512 214.154 354.6 214.309 354.638 214.478C354.732 214.847 354.735 215.234 354.646 215.604C354.566 215.977 354.396 216.324 354.151 216.617C354.043 216.753 353.897 216.855 353.731 216.908C353.565 216.961 353.387 216.964 353.22 216.916L330.078 211.658L327.777 221.767C327.751 221.924 327.679 222.069 327.572 222.186C327.465 222.302 327.327 222.386 327.173 222.426C326.839 222.516 326.487 222.523 326.15 222.446C325.812 222.37 325.498 222.212 325.235 221.986C325.113 221.884 325.022 221.749 324.975 221.597C324.927 221.445 324.925 221.282 324.968 221.129L327.657 209.313Z" fill="#144E94"/>
<path d="M320.82 232.518C321.259 231.284 322.126 230.247 323.264 229.596C323.895 229.279 324.591 229.111 325.297 229.105C326.004 229.099 326.702 229.254 327.339 229.56C327.902 229.736 328.425 230.023 328.876 230.403C329.328 230.783 329.699 231.25 329.968 231.775C330.428 232.874 330.557 234.083 330.339 235.254C330.092 236.78 329.678 238.275 329.105 239.711L328.452 241.408L329.187 241.69C329.887 241.959 330.629 242.1 331.379 242.105C332.13 242.117 332.87 241.917 333.514 241.529C334.239 241.051 334.781 240.34 335.049 239.513C335.327 238.857 335.497 238.161 335.554 237.451C335.579 237 335.553 236.548 335.475 236.104C335.401 235.825 335.407 235.531 335.492 235.256C335.558 235.085 335.671 234.935 335.817 234.825C335.964 234.715 336.138 234.648 336.321 234.632C336.695 234.562 337.08 234.592 337.437 234.72C337.805 234.862 338.041 235.251 338.145 235.889C338.249 236.626 338.245 237.375 338.135 238.111C338.026 238.943 337.82 239.759 337.52 240.542C337.058 241.952 336.189 243.194 335.022 244.112C334.046 244.823 332.878 245.224 331.671 245.263C330.445 245.297 329.224 245.082 328.083 244.633L319.024 241.152C318.878 241.092 318.749 240.999 318.646 240.88C318.543 240.761 318.47 240.619 318.433 240.466C318.328 240.082 318.357 239.673 318.517 239.308C318.642 238.959 318.883 238.663 319.201 238.471C319.331 238.382 319.48 238.326 319.636 238.306C319.793 238.286 319.951 238.304 320.099 238.357L321.515 238.901C321.028 237.973 320.675 236.98 320.467 235.953C320.246 234.799 320.368 233.604 320.82 232.518ZM322.804 234.349C322.538 235.058 322.468 235.827 322.603 236.573C322.724 237.337 322.995 238.069 323.402 238.727C323.715 239.296 324.208 239.744 324.803 240.004L326.643 240.711L327.113 239.49C327.477 238.554 327.778 237.595 328.015 236.619C328.235 235.82 328.253 234.979 328.067 234.172C327.956 233.806 327.755 233.473 327.484 233.204C327.212 232.935 326.878 232.737 326.511 232.629C326.15 232.453 325.752 232.363 325.35 232.367C324.948 232.37 324.552 232.466 324.193 232.647C323.545 233.032 323.053 233.633 322.804 234.344L322.804 234.349Z" fill="#144E94"/>
<path d="M310.418 254.944C311.059 253.784 312.007 252.821 313.158 252.162C314.28 251.512 315.547 251.152 316.843 251.115C318.104 251.064 319.353 251.365 320.451 251.985L329.006 256.816C329.14 256.903 329.251 257.021 329.329 257.16C329.408 257.299 329.451 257.455 329.456 257.614C329.504 258.01 329.42 258.41 329.217 258.753C329.03 259.101 328.732 259.377 328.37 259.535C328.231 259.61 328.075 259.65 327.917 259.653C327.758 259.656 327.601 259.621 327.459 259.552L318.904 254.721C318.249 254.351 317.507 254.163 316.755 254.177C315.984 254.184 315.225 254.375 314.543 254.734C313.848 255.092 313.275 255.649 312.898 256.333C312.507 257.005 312.323 257.777 312.369 258.553C312.413 259.32 312.645 260.063 313.044 260.719C313.428 261.368 313.975 261.905 314.631 262.277L323.221 267.127C323.357 267.212 323.469 267.33 323.546 267.471C323.622 267.611 323.661 267.769 323.659 267.93C323.686 268.319 323.595 268.708 323.397 269.045C323.216 269.405 322.921 269.696 322.558 269.872C322.421 269.943 322.268 269.979 322.114 269.977C321.959 269.976 321.807 269.937 321.671 269.863L313.083 265.014C311.973 264.394 311.06 263.473 310.449 262.358C309.821 261.233 309.483 259.969 309.465 258.68C309.435 257.371 309.765 256.079 310.418 254.944Z" fill="#144E94"/>
<path d="M301.152 270.039C301.388 269.714 301.73 269.482 302.118 269.382C302.267 269.335 302.425 269.323 302.579 269.347C302.734 269.372 302.88 269.432 303.007 269.522L315.353 279.244C315.479 279.341 315.579 279.47 315.641 279.617C315.703 279.764 315.726 279.925 315.707 280.083C315.667 280.474 315.508 280.844 315.253 281.143C315.036 281.436 314.732 281.653 314.384 281.761C314.234 281.809 314.075 281.819 313.921 281.79C313.766 281.761 313.622 281.693 313.5 281.593L312.28 280.632C312.624 281.495 312.759 282.428 312.673 283.353C312.572 284.477 312.126 285.542 311.396 286.403C310.67 287.336 309.682 288.033 308.559 288.404C307.379 288.797 306.118 288.888 304.894 288.667C303.67 288.446 302.521 287.921 301.553 287.14L293.883 281.1C293.742 280.997 293.633 280.856 293.569 280.693C293.505 280.53 293.489 280.353 293.522 280.181C293.579 279.801 293.737 279.443 293.978 279.144C294.207 278.856 294.508 278.632 294.851 278.496C295.01 278.422 295.187 278.395 295.361 278.418C295.535 278.442 295.699 278.514 295.833 278.628L303.497 284.663C304.088 285.129 304.794 285.426 305.541 285.524C306.301 285.634 307.076 285.564 307.805 285.32C308.537 285.081 309.181 284.629 309.654 284.022C310.079 283.477 310.354 282.831 310.452 282.147C310.566 281.42 310.49 280.676 310.233 279.987C309.926 279.206 309.404 278.527 308.727 278.03L301.057 271.99C300.939 271.885 300.847 271.753 300.79 271.606C300.732 271.458 300.711 271.299 300.727 271.142C300.741 270.737 300.891 270.349 301.152 270.039Z" fill="#144E94"/>
<path d="M281.722 291.414C282.763 290.344 284.066 289.565 285.502 289.156C286.701 288.846 287.967 288.91 289.128 289.34C290.337 289.805 291.423 290.542 292.301 291.494L294.895 294.215C295.8 295.136 296.485 296.249 296.898 297.472C297.281 298.651 297.286 299.92 296.915 301.103C296.438 302.512 295.599 303.772 294.483 304.757C293.784 305.447 292.979 306.021 292.099 306.457C291.442 306.792 290.728 307 289.994 307.068C289.761 307.105 289.522 307.092 289.294 307.027C289.066 306.963 288.855 306.85 288.675 306.696C288.521 306.523 288.406 306.318 288.339 306.096C288.254 305.848 288.224 305.586 288.25 305.326C288.272 305.076 288.385 304.843 288.569 304.672C288.797 304.484 289.079 304.375 289.374 304.361C289.818 304.299 290.252 304.185 290.67 304.023C291.312 303.743 291.894 303.34 292.38 302.835C292.87 302.437 293.273 301.942 293.564 301.381C293.854 300.82 294.026 300.206 294.068 299.575C294.027 298.361 293.505 297.213 292.617 296.384L290.024 293.663C289.237 292.738 288.116 292.162 286.906 292.062C286.268 292.076 285.64 292.222 285.06 292.489C284.481 292.756 283.963 293.139 283.538 293.615C282.992 294.089 282.551 294.672 282.242 295.325C282.064 295.746 281.93 296.183 281.843 296.631C281.807 296.936 281.673 297.222 281.461 297.444C281.273 297.633 281.026 297.752 280.761 297.781C280.508 297.808 280.252 297.776 280.013 297.688C279.787 297.61 279.583 297.48 279.416 297.309C279.273 297.117 279.172 296.896 279.121 296.661C279.07 296.427 279.069 296.184 279.119 295.949C279.219 295.192 279.465 294.462 279.845 293.799C280.339 292.909 280.973 292.104 281.722 291.414Z" fill="#144E94"/>
<path d="M270.598 301.366C270.916 301.121 271.309 300.994 271.71 301.007C271.866 301.003 272.021 301.036 272.162 301.103C272.304 301.169 272.427 301.268 272.524 301.391L287.939 323.026C288.033 323.155 288.092 323.306 288.11 323.465C288.129 323.623 288.106 323.784 288.043 323.931C287.895 324.295 287.639 324.605 287.309 324.82C286.992 325.061 286.612 325.204 286.215 325.232C286.054 325.248 285.891 325.221 285.743 325.154C285.596 325.087 285.469 324.982 285.376 324.85L278.176 314.744C278.266 315.657 278.148 316.579 277.829 317.439C277.448 318.466 276.749 319.345 275.835 319.95C274.875 320.642 273.732 321.033 272.549 321.074C271.306 321.12 270.071 320.853 268.958 320.298C267.845 319.742 266.89 318.916 266.181 317.895L260.517 309.946C260.41 309.807 260.346 309.641 260.33 309.467C260.314 309.293 260.348 309.118 260.429 308.962C260.59 308.614 260.842 308.314 261.158 308.095C261.459 307.882 261.81 307.752 262.177 307.718C262.351 307.692 262.528 307.715 262.689 307.787C262.85 307.858 262.986 307.973 263.083 308.12L268.741 316.061C269.18 316.674 269.777 317.156 270.469 317.455C271.171 317.77 271.935 317.92 272.703 317.894C273.468 317.871 274.208 317.62 274.828 317.172C275.389 316.769 275.835 316.226 276.121 315.597C276.432 314.931 276.568 314.196 276.513 313.463C276.438 312.629 276.129 311.833 275.622 311.167L269.958 303.218C269.874 303.084 269.823 302.931 269.809 302.774C269.795 302.616 269.819 302.457 269.879 302.311C270.005 301.924 270.259 301.591 270.598 301.366Z" fill="#144E94"/>
<path d="M242.129 325.87C242.407 325.742 242.718 325.703 243.018 325.76C243.166 325.787 243.304 325.852 243.42 325.948C243.536 326.044 243.624 326.168 243.678 326.309C244.48 328.108 245.352 329.975 246.295 331.91C247.237 333.845 248.183 335.776 249.131 337.704C250.079 339.634 250.953 341.495 251.751 343.285C251.855 343.485 251.912 343.705 251.92 343.93C251.927 344.154 251.885 344.378 251.795 344.584C251.604 344.983 251.272 345.296 250.863 345.463C250.467 345.648 250.017 345.683 249.597 345.562C249.38 345.496 249.181 345.381 249.016 345.226C248.85 345.071 248.723 344.881 248.643 344.669C247.844 342.878 247.041 340.987 246.233 338.994C245.425 337.001 244.62 335.006 243.819 333.01C243.017 331.014 242.215 329.115 241.413 327.315C241.344 327.175 241.315 327.02 241.329 326.865C241.342 326.71 241.399 326.562 241.491 326.437C241.647 326.193 241.868 325.997 242.129 325.87ZM239.3 319.617C239.541 319.502 239.803 319.439 240.07 319.433C240.336 319.428 240.601 319.479 240.846 319.584C241.331 319.776 241.72 320.153 241.927 320.631C242.037 320.866 242.099 321.121 242.11 321.381C242.12 321.64 242.078 321.9 241.987 322.143C241.897 322.392 241.755 322.619 241.571 322.81C241.388 323.001 241.166 323.152 240.921 323.252C240.688 323.357 240.436 323.414 240.18 323.419C239.925 323.424 239.671 323.376 239.434 323.279C239.189 323.189 238.964 323.049 238.775 322.869C238.585 322.689 238.435 322.471 238.333 322.231C238.225 321.994 238.166 321.739 238.159 321.479C238.153 321.22 238.198 320.962 238.294 320.72C238.375 320.476 238.507 320.252 238.68 320.062C238.854 319.872 239.065 319.721 239.3 319.617Z" fill="#144E94"/>
<path d="M198.753 331.249C200.225 331.018 201.73 331.115 203.16 331.532C204.396 331.894 205.506 332.596 206.362 333.558C207.198 334.528 207.723 335.726 207.871 336.997C207.93 337.217 207.94 337.448 207.899 337.673C207.858 337.897 207.767 338.109 207.634 338.295C207.324 338.574 206.929 338.742 206.512 338.771C206.138 338.829 205.755 338.795 205.397 338.673C205.229 338.612 205.082 338.504 204.972 338.363C204.862 338.221 204.794 338.052 204.776 337.874C204.66 337.074 204.35 336.314 203.873 335.66C203.402 335.028 202.751 334.552 202.005 334.295C201.114 334.004 200.166 333.932 199.241 334.087C198.571 334.137 197.918 334.321 197.321 334.631C196.724 334.94 196.196 335.366 195.769 335.885C195.372 336.501 195.1 337.19 194.971 337.912C194.841 338.633 194.856 339.373 195.014 340.089L197.265 356.72L202.156 356.059C202.316 356.033 202.48 356.051 202.631 356.11C202.782 356.168 202.915 356.266 203.016 356.393C203.253 356.671 203.402 357.013 203.444 357.376C203.487 357.707 203.441 358.045 203.311 358.353C203.248 358.509 203.143 358.644 203.007 358.742C202.871 358.841 202.71 358.9 202.542 358.912L195.919 359.807C195.569 359.859 195.212 359.807 194.892 359.659C194.738 359.589 194.605 359.48 194.507 359.342C194.41 359.204 194.351 359.042 194.338 358.874L191.853 340.515C191.551 338.866 191.699 337.167 192.282 335.595C192.79 334.356 193.677 333.31 194.815 332.604C196.016 331.878 197.359 331.416 198.753 331.249Z" fill="#144E94"/>
<path d="M174.769 332.685C176.071 332.7 177.344 333.077 178.444 333.774C179.552 334.459 180.477 335.402 181.141 336.523C181.801 337.617 182.138 338.876 182.113 340.153L182.052 343.983C182.039 345.255 181.67 346.498 180.986 347.571C180.299 348.662 179.349 349.564 178.223 350.193C177.08 350.844 175.782 351.172 174.467 351.141C173.157 351.13 171.873 350.768 170.751 350.091C169.646 349.436 168.719 348.519 168.052 347.421C167.379 346.315 167.041 345.038 167.077 343.744L167.138 339.911C167.16 338.641 167.539 337.403 168.23 336.338C168.928 335.231 169.885 334.31 171.018 333.655C172.154 332.989 173.453 332.653 174.769 332.685ZM174.723 335.526C173.944 335.504 173.176 335.715 172.518 336.133C171.861 336.55 171.312 337.118 170.918 337.789C170.518 338.445 170.299 339.196 170.285 339.964L170.224 343.794C170.211 344.546 170.401 345.287 170.773 345.941C171.147 346.613 171.675 347.188 172.315 347.616C172.962 348.057 173.727 348.295 174.51 348.3C175.289 348.323 176.057 348.111 176.715 347.693C177.362 347.283 177.902 346.726 178.292 346.067C178.683 345.423 178.895 344.686 178.906 343.933L178.967 340.1C178.979 339.334 178.792 338.578 178.424 337.906C178.061 337.22 177.533 336.635 176.888 336.203C176.248 335.768 175.494 335.532 174.72 335.526L174.723 335.526Z" fill="#144E94"/>
<path d="M154.293 354.404C154.548 354.432 154.795 354.511 155.02 354.635C155.245 354.759 155.443 354.926 155.603 355.127C155.762 355.307 155.881 355.519 155.952 355.749C156.023 355.979 156.045 356.221 156.015 356.46C155.986 356.697 155.905 356.926 155.778 357.128C155.651 357.331 155.48 357.504 155.279 357.634C154.858 357.928 154.34 358.05 153.832 357.974C153.326 357.921 152.861 357.672 152.537 357.28C152.38 357.101 152.264 356.891 152.195 356.663C152.127 356.435 152.108 356.196 152.141 355.96C152.172 355.723 152.252 355.496 152.376 355.291C152.5 355.087 152.665 354.911 152.861 354.773C153.062 354.618 153.293 354.506 153.539 354.443C153.785 354.379 154.041 354.366 154.293 354.404ZM157.246 331.708C157.646 331.744 158.021 331.918 158.307 332.2C158.424 332.304 158.515 332.433 158.573 332.578C158.632 332.723 158.655 332.879 158.643 333.035L156.631 348.615C156.612 348.773 156.553 348.925 156.458 349.053C156.364 349.182 156.238 349.284 156.092 349.35C155.735 349.516 155.337 349.57 154.949 349.504C154.552 349.466 154.176 349.312 153.866 349.063C153.736 348.965 153.635 348.835 153.572 348.686C153.51 348.536 153.488 348.373 153.51 348.212L155.521 332.631C155.551 332.476 155.617 332.329 155.714 332.204C155.811 332.079 155.937 331.979 156.08 331.912C156.435 331.715 156.846 331.643 157.246 331.708Z" fill="#144E94"/>
<path d="M145.193 329.763C145.586 329.846 145.938 330.063 146.188 330.376C146.292 330.493 146.368 330.632 146.409 330.783C146.449 330.933 146.454 331.092 146.423 331.245L142.588 346.48C142.551 346.635 142.474 346.778 142.365 346.895C142.256 347.012 142.119 347.099 141.967 347.146C141.593 347.27 141.19 347.276 140.813 347.165C140.456 347.088 140.134 346.899 139.893 346.625C139.788 346.509 139.713 346.367 139.677 346.214C139.641 346.062 139.644 345.902 139.685 345.75L140.064 344.244C139.416 344.911 138.619 345.415 137.739 345.716C136.671 346.082 135.516 346.111 134.431 345.797C133.282 345.516 132.242 344.899 131.444 344.026C130.602 343.111 130.004 341.998 129.705 340.791C129.407 339.584 129.417 338.321 129.734 337.119L132.117 327.654C132.154 327.483 132.238 327.326 132.361 327.201C132.483 327.076 132.639 326.988 132.809 326.949C133.18 326.845 133.571 326.843 133.943 326.941C134.3 327.032 134.627 327.215 134.892 327.472C135.024 327.587 135.121 327.738 135.171 327.906C135.221 328.074 135.222 328.253 135.173 328.422L132.792 337.88C132.608 338.609 132.625 339.375 132.84 340.096C133.051 340.835 133.432 341.513 133.953 342.078C134.47 342.649 135.146 343.052 135.894 343.235C136.566 343.4 137.268 343.386 137.933 343.196C138.643 343.003 139.292 342.63 139.817 342.113C140.405 341.514 140.812 340.761 140.989 339.94L143.372 330.475C143.42 330.324 143.502 330.186 143.614 330.073C143.725 329.96 143.861 329.876 144.012 329.826C144.387 329.673 144.803 329.651 145.193 329.763Z" fill="#144E94"/>
<path d="M106.23 315.327C107.411 315.93 108.404 316.846 109.101 317.974C109.787 319.075 110.187 320.328 110.265 321.622C110.357 322.879 110.095 324.137 109.51 325.253L104.951 333.952C104.869 334.089 104.754 334.203 104.618 334.286C104.481 334.369 104.327 334.417 104.167 334.427C103.773 334.488 103.37 334.416 103.02 334.224C102.666 334.049 102.382 333.76 102.212 333.404C102.132 333.267 102.087 333.113 102.079 332.955C102.071 332.796 102.101 332.639 102.166 332.494L106.724 323.796C107.074 323.13 107.238 322.383 107.2 321.632C107.168 320.862 106.953 320.11 106.572 319.44C106.192 318.757 105.617 318.203 104.92 317.848C104.236 317.479 103.457 317.32 102.682 317.391C101.917 317.459 101.181 317.715 100.538 318.135C99.9011 318.538 99.3812 319.102 99.0306 319.769L94.4535 328.503C94.3732 328.642 94.2584 328.758 94.1202 328.839C93.982 328.92 93.8251 328.964 93.6648 328.966C93.276 329.006 92.8843 328.927 92.541 328.74C92.1748 328.571 91.8746 328.286 91.687 327.929C91.6118 327.794 91.5707 327.643 91.5672 327.488C91.5637 327.334 91.598 327.181 91.6671 327.043L96.2432 318.311C96.8283 317.182 97.7197 316.241 98.8153 315.595C99.9211 314.931 101.175 314.553 102.463 314.494C103.771 314.423 105.074 314.711 106.23 315.327Z" fill="#144E94"/>
<path d="M88.0515 304.119C88.9446 304.74 89.7339 305.497 90.39 306.364C90.8984 307.017 91.2812 307.759 91.519 308.552C91.6137 308.798 91.653 309.061 91.6341 309.323C91.6152 309.586 91.5386 309.841 91.4096 310.07C91.2818 310.241 91.1191 310.383 90.9324 310.487C90.7321 310.604 90.5104 310.68 90.2803 310.71C90.0759 310.747 89.8653 310.701 89.6942 310.584C89.4142 310.348 89.2248 310.022 89.1582 309.662C88.9991 309.117 88.7748 308.594 88.4903 308.103C88.0138 307.353 87.3812 306.713 86.6354 306.229C85.8866 305.561 84.9211 305.187 83.9176 305.176C83.6027 305.201 83.2969 305.294 83.0207 305.447C82.7444 305.601 82.504 305.811 82.3156 306.064C82.109 306.318 81.958 306.612 81.8726 306.928C81.7871 307.243 81.7689 307.573 81.8193 307.896C81.9575 308.555 82.2377 309.175 82.6406 309.715C83.0749 310.322 83.5465 310.948 84.0553 311.591C84.5557 312.216 85.0005 312.884 85.3845 313.587C85.7549 314.251 85.9504 314.998 85.9525 315.758C85.9084 316.642 85.5862 317.489 85.0319 318.178C84.5242 318.871 83.8588 319.432 83.0906 319.817C82.2286 320.245 81.2606 320.413 80.3046 320.301C79.0587 320.126 77.8821 319.621 76.8959 318.84C76.1913 318.339 75.5466 317.758 74.9745 317.109C74.4906 316.581 74.0904 315.982 73.7876 315.333C73.5462 314.777 73.5319 314.351 73.7447 314.055C73.8779 313.896 74.0392 313.762 74.2206 313.661C74.4466 313.518 74.6963 313.418 74.9578 313.364C75.0785 313.336 75.2039 313.334 75.3252 313.359C75.4465 313.385 75.561 313.436 75.6607 313.509C75.8956 313.709 76.083 313.958 76.2091 314.24C76.4336 314.659 76.6882 315.062 76.9709 315.446C77.354 315.951 77.8159 316.391 78.3387 316.75C78.8869 317.184 79.5371 317.47 80.2274 317.581C80.7314 317.653 81.2458 317.588 81.7156 317.392C82.0965 317.23 82.4277 316.97 82.6755 316.638C82.8532 316.418 82.9755 316.158 83.0322 315.88C83.0889 315.603 83.0785 315.315 83.0017 315.043C82.8038 314.424 82.4938 313.847 82.0872 313.34C81.6353 312.748 81.1542 312.132 80.644 311.491C80.1374 310.856 79.7032 310.167 79.3494 309.436C78.9984 308.719 78.8339 307.925 78.8713 307.127C78.9619 306.174 79.3283 305.268 79.9256 304.52C80.3134 303.935 80.8317 303.447 81.4397 303.096C82.0477 302.744 82.7289 302.538 83.43 302.494C85.1135 302.478 86.7494 303.053 88.0515 304.119Z" fill="#144E94"/>
<path d="M78.2151 292.403C78.4122 292.583 78.5541 292.815 78.6243 293.073C78.6677 293.198 78.676 293.333 78.6483 293.463C78.6207 293.593 78.5581 293.713 78.4673 293.81C78.3723 293.92 78.2553 294.01 78.1237 294.073L76.2212 295.032C76.389 295.383 76.4514 295.776 76.4006 296.162C76.3538 296.551 76.1878 296.916 75.9254 297.207C75.7563 297.406 75.5489 297.568 75.3155 297.684C75.0822 297.8 74.8277 297.868 74.5675 297.883C74.3108 297.906 74.0524 297.875 73.8084 297.792C73.5644 297.71 73.3402 297.577 73.1501 297.404C72.7633 297.065 72.5217 296.591 72.4754 296.079C72.4466 295.81 72.4773 295.537 72.5651 295.281C72.6529 295.024 72.7959 294.79 72.9838 294.595C73.0563 294.518 73.1344 294.447 73.2174 294.382C73.4025 294.244 73.5979 294.121 73.802 294.014C74.0826 293.857 74.4978 293.639 75.0474 293.359C75.5971 293.079 76.3337 292.71 77.2573 292.25C77.4173 292.164 77.6032 292.139 77.7803 292.18C77.9416 292.217 78.0911 292.294 78.2151 292.403Z" fill="#144E94"/>
<path d="M54.7783 271.718C55.6299 272.818 56.2414 274.084 56.5733 275.435C56.8872 276.747 56.7776 278.125 56.2603 279.371C55.5628 280.897 54.463 282.205 53.0786 283.155L43.9827 290.039C42.6915 291.116 41.1269 291.815 39.4625 292.058C38.1166 292.207 36.7577 291.933 35.5743 291.276C34.3561 290.585 33.2964 289.646 32.4636 288.52C31.5232 287.346 30.8609 285.974 30.5262 284.508C30.2539 283.291 30.3186 282.023 30.7132 280.84C31.1032 279.719 31.8227 278.743 32.7774 278.037C32.9571 277.861 33.1703 277.722 33.4043 277.629C33.6384 277.536 33.8887 277.49 34.1406 277.494C34.5524 277.614 34.9068 277.879 35.1385 278.24C35.4083 278.55 35.571 278.938 35.6028 279.348C35.6048 279.508 35.5699 279.667 35.501 279.813C35.4321 279.958 35.3309 280.085 35.2052 280.185C34.8712 280.47 34.567 280.788 34.2972 281.134C33.9669 281.555 33.7194 282.034 33.5679 282.547C33.3972 283.155 33.3852 283.795 33.5329 284.408C33.7538 285.259 34.1579 286.051 34.7169 286.73C35.092 287.3 35.5791 287.787 36.1485 288.163C36.7178 288.539 37.3577 288.796 38.0293 288.917C39.5067 288.995 40.9545 288.484 42.0553 287.496L51.1513 280.612C51.7739 280.219 52.3119 279.707 52.7336 279.104C53.1552 278.5 53.4521 277.819 53.6067 277.1C53.6602 276.408 53.5753 275.712 53.3569 275.053C53.1385 274.394 52.791 273.786 52.3347 273.262C51.8445 272.553 51.2037 271.961 50.458 271.527C49.9246 271.234 49.3221 271.089 48.7136 271.108C48.1747 271.137 47.6456 271.263 47.1523 271.482C46.7052 271.679 46.2684 271.898 45.8437 272.14C45.7066 272.238 45.5482 272.302 45.3815 272.327C45.2148 272.353 45.0445 272.338 44.8843 272.286C44.5242 272.135 44.2158 271.883 43.9968 271.56C43.7048 271.235 43.5441 270.813 43.5459 270.376C43.6793 269.882 44.0033 269.461 44.4468 269.205C45.4012 268.468 46.5534 268.031 47.7569 267.951C49.0255 267.877 50.2897 268.155 51.41 268.755C52.7432 269.474 53.895 270.488 54.7783 271.718Z" fill="#144E94"/>
<path d="M43.7401 254.8C44.396 255.934 44.6238 257.265 44.3822 258.553C44.2147 259.238 43.892 259.877 43.439 260.418C42.986 260.96 42.4147 261.39 41.7691 261.676C41.2698 261.991 40.7128 262.203 40.1307 262.299C39.5485 262.396 38.9529 262.377 38.3785 262.241C37.2433 261.879 36.2385 261.194 35.4874 260.269C34.485 259.092 33.6148 257.809 32.8925 256.442L32.0228 254.846L31.3308 255.222C30.6728 255.58 30.0846 256.054 29.5946 256.62C29.0988 257.185 28.7715 257.876 28.65 258.617C28.5443 259.48 28.735 260.352 29.1908 261.092C29.5107 261.728 29.9307 262.309 30.4348 262.812C30.7618 263.124 31.1233 263.396 31.5124 263.625C31.7725 263.75 31.9924 263.945 32.147 264.188C32.2349 264.349 32.2756 264.531 32.2646 264.714C32.2537 264.897 32.1914 265.073 32.085 265.222C31.8967 265.552 31.6239 265.825 31.2946 266.014C30.9484 266.203 30.4987 266.13 29.9455 265.795C29.3166 265.396 28.7488 264.909 28.2598 264.348C27.6964 263.726 27.2085 263.041 26.8063 262.305C26.0319 261.04 25.6489 259.574 25.7055 258.092C25.7964 256.888 26.2473 255.74 26.9996 254.796C27.7689 253.842 28.7231 253.052 29.805 252.476L38.3265 247.84C38.4664 247.767 38.6214 247.729 38.7788 247.729C38.9362 247.728 39.0916 247.764 39.2322 247.835C39.593 248.004 39.885 248.291 40.0595 248.649C40.2451 248.97 40.314 249.345 40.2546 249.711C40.2377 249.868 40.184 250.018 40.0978 250.15C40.0117 250.281 39.8955 250.391 39.7589 250.469L38.4276 251.193C39.4501 251.424 40.4345 251.799 41.3516 252.306C42.3749 252.886 43.2055 253.753 43.7401 254.8ZM41.0596 255.124C40.6919 254.461 40.1516 253.91 39.4959 253.529C38.8355 253.126 38.1017 252.858 37.337 252.741C36.7009 252.611 36.0397 252.695 35.4563 252.98L33.7256 253.921L34.3512 255.07C34.8287 255.953 35.3643 256.804 35.9543 257.616C36.4199 258.302 37.0489 258.86 37.7846 259.242C38.1353 259.394 38.5184 259.457 38.8995 259.425C39.2806 259.393 39.6477 259.267 39.968 259.058C40.3361 258.897 40.6619 258.653 40.92 258.345C41.1781 258.037 41.3615 257.673 41.4559 257.283C41.5825 256.54 41.4435 255.777 41.0632 255.126L41.0596 255.124Z" fill="#144E94"/>
<path d="M35.1625 237.746C35.3184 238.11 35.3427 238.516 35.2312 238.896C35.1966 239.048 35.1269 239.19 35.0276 239.311C34.9283 239.432 34.8021 239.528 34.6591 239.591L20.0058 245.274C19.8576 245.333 19.6965 245.353 19.5382 245.332C19.3799 245.311 19.2298 245.249 19.1026 245.152C18.7897 244.923 18.5539 244.605 18.4266 244.238C18.2806 243.899 18.2467 243.522 18.3299 243.163C18.3639 243.009 18.4361 242.867 18.5398 242.748C18.6434 242.63 18.7753 242.54 18.9231 242.486L20.5692 241.847C19.9471 241.765 19.3412 241.589 18.772 241.325C18.1497 241.038 17.5806 240.648 17.0888 240.171C16.5577 239.656 16.1478 239.03 15.8888 238.337L15.425 237.143C15.3665 236.989 15.3431 236.824 15.3568 236.66C15.3704 236.495 15.4206 236.336 15.5037 236.194C15.6758 235.867 15.9642 235.616 16.3122 235.49C16.6511 235.351 17.0297 235.344 17.374 235.469C17.5314 235.518 17.6759 235.601 17.7968 235.713C17.9177 235.825 18.012 235.963 18.0728 236.116L18.5365 237.31C18.837 238.072 19.3462 238.734 20.0056 239.219C20.7183 239.753 21.5564 240.093 22.4391 240.209C23.4665 240.334 24.5088 240.188 25.4622 239.785L33.5208 236.66C33.6715 236.611 33.8317 236.599 33.988 236.625C34.1444 236.65 34.2924 236.713 34.4198 236.807C34.7657 237.028 35.0273 237.359 35.1625 237.746Z" fill="#144E94"/>
<path d="M28.22 215.077C28.6062 216.532 28.6531 218.056 28.3573 219.532C28.0922 220.843 27.4724 222.056 26.5652 223.039C25.6241 224.026 24.4095 224.711 23.0768 225.005L19.2393 225.942C18.0122 226.249 16.7224 226.197 15.5241 225.792C14.308 225.389 13.2119 224.689 12.3356 223.755C11.4274 222.795 10.7906 221.612 10.4905 220.325C10.1818 219.106 10.1875 217.828 10.5069 216.612C10.8135 215.421 11.4193 214.328 12.267 213.436C13.1524 212.516 14.2896 211.876 15.5367 211.596C16.2542 211.357 17.0281 211.345 17.7527 211.562C18.2321 211.753 18.6196 212.121 18.8345 212.589C19.0583 213.081 19.2344 213.593 19.3603 214.118L21.3348 222.194L22.4619 221.918C23.087 221.792 23.6739 221.521 24.1759 221.127C24.6779 220.734 25.081 220.229 25.3532 219.653C25.9244 218.377 26.0254 216.941 25.6384 215.598C25.4866 214.841 25.1771 214.125 24.73 213.496C24.4152 213.087 24.0648 212.706 23.6828 212.359C23.4055 212.141 23.2019 211.844 23.0997 211.507C23.0376 211.267 23.0672 211.012 23.1829 210.793C23.2946 210.572 23.4519 210.378 23.6444 210.223C23.8049 210.086 23.9934 209.986 24.1967 209.928C24.4268 209.911 24.658 209.941 24.8763 210.016C25.0946 210.09 25.2954 210.209 25.4666 210.363C26.0914 210.838 26.6192 211.428 27.021 212.101C27.5815 213.02 27.9866 214.026 28.22 215.077ZM19.2852 222.694L17.6242 215.901C17.5566 215.443 17.3677 215.011 17.0771 214.65C16.9266 214.554 16.7553 214.494 16.5774 214.478C16.3994 214.461 16.22 214.486 16.0541 214.553C15.3358 214.723 14.6756 215.082 14.141 215.59C13.5978 216.102 13.1955 216.745 12.9728 217.457C12.7391 218.211 12.7222 219.015 12.9241 219.778C13.0962 220.504 13.4501 221.175 13.9525 221.728C14.4549 222.28 15.0894 222.696 15.7966 222.937C16.5007 223.173 17.2581 223.199 17.9769 223.013L19.2852 222.694Z" fill="#144E94"/>
<path d="M24.7212 193.332C24.8937 194.827 24.7205 196.342 24.215 197.76C23.7638 199.019 22.9757 200.13 21.9363 200.972C20.8626 201.814 19.562 202.317 18.2009 202.416L14.2683 202.791C13.0097 202.919 11.7408 202.682 10.6135 202.108C9.46805 201.535 8.48428 200.684 7.75173 199.634C6.9913 198.553 6.53178 197.29 6.42017 195.974C6.2904 194.723 6.4801 193.46 6.97153 192.302C7.44654 191.167 8.20357 190.173 9.17089 189.413C10.1798 188.629 11.3974 188.159 12.6717 188.062C13.4162 187.929 14.1838 188.028 14.8695 188.347C15.3165 188.605 15.6469 189.025 15.7921 189.519C15.9427 190.038 16.0431 190.57 16.0921 191.108L16.8822 199.383L18.0371 199.273C18.6741 199.238 19.2939 199.054 19.8473 198.737C20.4007 198.42 20.8724 197.978 21.2249 197.447C21.9739 196.267 22.2809 194.86 22.0914 193.476C22.0502 192.705 21.8472 191.952 21.4955 191.265C21.2429 190.815 20.9509 190.388 20.6231 189.989C20.38 189.734 20.2214 189.41 20.1688 189.062C20.1419 188.815 20.208 188.568 20.354 188.367C20.4963 188.165 20.6799 187.996 20.8928 187.87C21.0714 187.758 21.2724 187.685 21.4818 187.658C21.712 187.674 21.9365 187.737 22.1418 187.842C22.347 187.947 22.5287 188.093 22.6757 188.271C23.2258 188.83 23.663 189.49 23.9636 190.214C24.3857 191.205 24.6417 192.258 24.7212 193.332ZM14.7818 199.584L14.1172 192.622C14.1163 192.159 13.9916 191.704 13.756 191.306C13.621 191.189 13.46 191.105 13.2863 191.063C13.1127 191.021 12.9314 191.021 12.7577 191.062C12.0222 191.128 11.3173 191.387 10.715 191.814C10.1036 192.242 9.61288 192.82 9.2899 193.493C8.95003 194.205 8.81743 194.999 8.90724 195.783C8.9729 196.526 9.22637 197.241 9.6439 197.86C10.0614 198.479 10.6294 198.982 11.2945 199.322C11.9573 199.657 12.703 199.792 13.4412 199.711L14.7818 199.584Z" fill="#144E94"/>
<path d="M23.8323 177.404C23.833 177.799 23.6958 178.183 23.4443 178.488C23.3527 178.614 23.2327 178.718 23.094 178.79C22.9553 178.862 22.8017 178.901 22.6454 178.903L6.94306 178.385C6.78344 178.381 6.62743 178.337 6.49024 178.255C6.35305 178.174 6.23937 178.058 6.1603 177.919C5.96243 177.586 5.87078 177.2 5.89753 176.814C5.89637 176.445 6.01312 176.085 6.23078 175.787C6.3223 175.659 6.44458 175.557 6.58633 175.488C6.72808 175.42 6.88473 175.389 7.04182 175.397L8.80579 175.455C8.26609 175.136 7.77805 174.737 7.35839 174.271C6.89885 173.763 6.52879 173.181 6.26396 172.55C5.97762 171.869 5.84657 171.132 5.88029 170.394L5.92259 169.114C5.92922 168.95 5.97261 168.789 6.04958 168.643C6.12655 168.497 6.23516 168.371 6.36745 168.273C6.65412 168.039 7.01782 167.921 7.38702 167.942C7.75315 167.947 8.10423 168.089 8.3716 168.339C8.49711 168.445 8.59712 168.579 8.66431 168.729C8.7315 168.88 8.76416 169.043 8.7599 169.208L8.71759 170.488C8.69496 171.306 8.90338 172.113 9.31897 172.818C9.76505 173.588 10.4018 174.23 11.1679 174.682C12.0636 175.199 13.0792 175.474 14.1137 175.477L22.7492 175.762C22.9069 175.776 23.0589 175.828 23.1926 175.913C23.3264 175.997 23.438 176.113 23.5183 176.249C23.7495 176.588 23.8601 176.995 23.8323 177.404Z" fill="#144E94"/>
<path d="M27.2308 147.287C27.1484 147.627 26.9695 147.936 26.7155 148.178C26.5948 148.297 26.444 148.381 26.2791 148.422C26.1143 148.463 25.9415 148.458 25.7791 148.408L1.06491 142.247C0.894227 142.214 0.737171 142.131 0.613621 142.009C0.490072 141.887 0.405584 141.731 0.37085 141.56C0.284362 141.189 0.289821 140.803 0.386751 140.434C0.474399 140.064 0.651253 139.72 0.901968 139.433C1.01285 139.299 1.16118 139.201 1.32809 139.151C1.495 139.101 1.67297 139.102 1.83938 139.153L24.8601 144.892L27.3709 134.836C27.401 134.68 27.4752 134.537 27.5847 134.422C27.6943 134.308 27.8344 134.227 27.9886 134.19C28.3247 134.107 28.6761 134.107 29.012 134.191C29.3479 134.275 29.6583 134.439 29.9161 134.67C30.0368 134.774 30.1245 134.911 30.1688 135.065C30.213 135.218 30.2119 135.38 30.1655 135.533L27.2308 147.287Z" fill="#144E94"/>
<path d="M34.5548 124.208C34.0903 125.434 33.202 126.453 32.0508 127.08C31.413 127.384 30.7139 127.538 30.0073 127.53C29.3007 127.522 28.6054 127.352 27.9748 127.033C27.4151 126.845 26.8984 126.548 26.4548 126.158C26.0113 125.769 25.6498 125.295 25.3915 124.764C24.954 123.656 24.8497 122.444 25.0915 121.278C25.37 119.756 25.8148 118.27 26.4177 116.846L27.1055 115.163L26.3757 114.865C25.6816 114.582 24.942 114.426 24.1926 114.405C23.4414 114.378 22.6977 114.562 22.0462 114.937C21.3106 115.401 20.7546 116.101 20.4693 116.922C20.1782 117.572 19.9934 118.265 19.9219 118.974C19.8875 119.424 19.9048 119.877 19.9734 120.323C20.0415 120.603 20.0295 120.896 19.9387 121.17C19.8695 121.34 19.7539 121.487 19.605 121.594C19.4562 121.701 19.2802 121.765 19.0971 121.777C18.7224 121.839 18.3377 121.801 17.9828 121.666C17.6176 121.517 17.3897 121.122 17.2991 120.482C17.2104 119.743 17.2293 118.995 17.3552 118.261C17.4805 117.431 17.7035 116.62 18.0197 115.843C18.511 114.442 19.4055 113.218 20.5907 112.324C21.5816 111.633 22.7574 111.256 23.9656 111.241C25.1924 111.233 26.4083 111.473 27.5403 111.945L36.5277 115.612C36.6722 115.674 36.7998 115.77 36.9 115.892C37.0003 116.013 37.0704 116.156 37.1045 116.31C37.2019 116.696 37.1638 117.104 36.9967 117.466C36.8651 117.813 36.6176 118.103 36.2961 118.289C36.1641 118.375 36.0136 118.428 35.857 118.445C35.7003 118.462 35.542 118.441 35.3949 118.385L33.9908 117.812C34.4586 118.75 34.7908 119.749 34.9776 120.781C35.1755 121.94 35.0285 123.132 34.5548 124.208ZM32.6077 122.337C32.8891 121.633 32.9746 120.866 32.855 120.117C32.7495 119.351 32.4931 118.613 32.1005 117.946C31.7984 117.372 31.3149 116.913 30.725 116.641L28.8997 115.897L28.4049 117.108C28.022 118.036 27.7011 118.99 27.4443 119.961C27.2074 120.755 27.1722 121.595 27.3418 122.407C27.4455 122.775 27.6391 123.111 27.9051 123.386C28.1711 123.661 28.5011 123.865 28.8657 123.981C29.2238 124.164 29.6193 124.262 30.0214 124.267C30.4235 124.272 30.8213 124.184 31.1838 124.01C31.8399 123.638 32.3441 123.048 32.608 122.342L32.6077 122.337Z" fill="#144E94"/>
<path d="M45.4073 101.997C44.7425 103.144 43.7753 104.087 42.6112 104.723C41.476 105.35 40.2019 105.684 38.9048 105.694C37.6438 105.72 36.4008 105.393 35.3156 104.75L26.8612 99.7462C26.729 99.6567 26.6205 99.5365 26.5449 99.3959C26.4693 99.2553 26.429 99.0985 26.4272 98.939C26.3874 98.5423 26.4798 98.1437 26.6901 97.805C26.8837 97.4609 27.1874 97.1918 27.5524 97.0409C27.6935 96.9688 27.8498 96.9314 28.0083 96.9317C28.1668 96.932 28.3229 96.9701 28.4638 97.0427L36.9182 102.047C37.5652 102.431 38.3035 102.634 39.0558 102.635C39.827 102.643 40.5891 102.468 41.279 102.123C41.9809 101.779 42.5647 101.234 42.956 100.558C43.3609 99.8939 43.5607 99.1254 43.5303 98.3486C43.502 97.5817 43.2853 96.8335 42.8994 96.17C42.5293 95.5131 41.9931 94.9647 41.3444 94.5799L32.8557 89.5553C32.7213 89.468 32.6119 89.3473 32.5381 89.2052C32.4643 89.063 32.4286 88.9041 32.4345 88.7441C32.4152 88.354 32.5143 87.9672 32.7189 87.6344C32.9073 87.2778 33.208 86.9932 33.5746 86.8247C33.7133 86.7567 33.8666 86.7236 34.021 86.7282C34.1755 86.7328 34.3265 86.775 34.461 86.8511L42.948 91.8747C44.0454 92.5177 44.9396 93.4565 45.5279 94.5836C46.1327 95.7218 46.445 96.9924 46.4366 98.2811C46.4391 99.5904 46.0831 100.875 45.4073 101.997Z" fill="#144E94"/>
<path d="M54.9819 87.1009C54.7394 87.4208 54.3929 87.6461 54.0021 87.7382C53.8522 87.7825 53.6941 87.7913 53.5402 87.7638C53.3864 87.7363 53.2411 87.6733 53.1158 87.5799L40.9658 77.6061C40.8411 77.5062 40.7445 77.3758 40.6853 77.2275C40.6261 77.0791 40.6065 76.918 40.6282 76.7599C40.6766 76.3694 40.8427 76.003 41.1045 75.7092C41.3266 75.4202 41.6354 75.2097 41.9858 75.1085C42.1363 75.0632 42.2959 75.0564 42.4498 75.0889C42.6036 75.1214 42.7468 75.192 42.8662 75.2943L44.0676 76.2806C43.7409 75.41 43.6248 74.4744 43.7289 73.5504C43.8533 72.4287 44.321 71.3727 45.0681 70.5263C45.8138 69.6077 46.8158 68.9312 47.947 68.5828C49.1352 68.2132 50.3974 68.1482 51.6173 68.3939C52.8372 68.6395 53.9757 69.1879 54.9279 69.9886L62.4766 76.1852C62.6157 76.2913 62.7218 76.4347 62.7824 76.5988C62.8431 76.7628 62.8558 76.9407 62.8192 77.1117C62.7543 77.4906 62.5897 77.8455 62.3421 78.1397C62.1069 78.4236 61.8014 78.6409 61.4559 78.77C61.2952 78.8408 61.1175 78.8641 60.9439 78.8373C60.7703 78.8105 60.608 78.7346 60.4761 78.6187L52.9336 72.4272C52.3518 71.9492 51.6517 71.6371 50.9071 71.5238C50.1488 71.399 49.3717 71.4533 48.6381 71.6823C47.9009 71.906 47.2476 72.3451 46.7622 72.943C46.3263 73.4793 46.0382 74.1201 45.9264 74.8019C45.7979 75.5267 45.8584 76.2723 46.1019 76.967C46.3928 77.7546 46.9009 78.4438 47.5674 78.9548L55.1161 85.1514C55.2326 85.2587 55.3217 85.3923 55.3763 85.541C55.4308 85.6897 55.4491 85.8492 55.4297 86.0063C55.4074 86.411 55.2497 86.7965 54.9819 87.1009Z" fill="#144E94"/>
<path d="M74.8311 66.1226C73.7691 67.1719 72.45 67.9242 71.0057 68.3043C69.8004 68.5899 68.5364 68.4998 67.3838 68.0462C66.1843 67.5567 65.1136 66.7979 64.2547 65.8285L61.7161 63.055C60.8299 62.1157 60.1677 60.9883 59.7793 59.7571C59.4209 58.5703 59.4409 57.3015 59.8367 56.1267C60.3422 54.727 61.2061 53.4842 62.3421 52.5222C63.0553 51.8465 63.8719 51.289 64.7611 50.8707C65.424 50.5485 66.1423 50.3556 66.8775 50.3023C67.112 50.2695 67.3507 50.2881 67.5772 50.3569C67.8037 50.4258 68.0124 50.5431 68.1888 50.7009C68.3401 50.8772 68.4509 51.0844 68.5134 51.3081C68.5927 51.557 68.6176 51.8199 68.5863 52.0792C68.5596 52.3287 68.4414 52.5594 68.2545 52.727C68.0228 52.9103 67.738 53.0138 67.4426 53.0218C66.9979 53.0747 66.561 53.1793 66.1406 53.3336C65.4921 53.5998 64.9027 53.9916 64.4063 54.4864C63.9078 54.8747 63.4948 55.3615 63.1929 55.9164C62.891 56.4712 62.7067 57.0823 62.6516 57.7115C62.6685 58.9264 63.1672 60.0849 64.0382 60.9327L66.5761 63.7055C67.3435 64.6465 68.453 65.2451 69.6614 65.3701C70.2995 65.3685 70.9305 65.2358 71.5152 64.9804C72.0998 64.7249 72.6257 64.3521 73.0602 63.885C73.6156 63.4218 74.0688 62.8485 74.3909 62.2012C74.5772 61.7847 74.7199 61.35 74.8168 60.9041C74.8583 60.5994 74.9981 60.3165 75.215 60.0983C75.4068 59.9134 75.656 59.7995 75.9215 59.7755C76.1753 59.754 76.4307 59.791 76.668 59.8836C76.8922 59.9664 77.0939 60.1003 77.2572 60.2747C77.3963 60.4704 77.4922 60.6934 77.5385 60.9289C77.5849 61.1644 77.5806 61.4071 77.5261 61.6409C77.411 62.3957 77.1498 63.1209 76.7571 63.7759C76.2448 64.6561 75.5946 65.4484 74.8311 66.1226Z" fill="#144E94"/>
<path d="M86.1507 56.3779C85.8282 56.6166 85.4327 56.7355 85.032 56.7141C84.8758 56.7145 84.7217 56.6786 84.5819 56.609C84.4421 56.5395 84.3204 56.4383 84.2266 56.3136L69.2633 34.3761C69.1718 34.2454 69.1157 34.0931 69.1007 33.9343C69.0856 33.7755 69.112 33.6155 69.1773 33.4699C69.3334 33.109 69.5957 32.8042 69.9293 32.5959C70.2507 32.3614 70.6338 32.2262 71.0314 32.2071C71.1928 32.194 71.3548 32.224 71.5008 32.2941C71.6468 32.3642 71.7715 32.4718 71.8622 32.606L78.8513 42.8526C78.7792 41.9384 78.9167 41.0199 79.2532 40.1669C79.6551 39.148 80.3709 38.2833 81.2971 37.6979C82.2703 37.0262 83.4213 36.6586 84.6039 36.6419C85.8473 36.6208 87.076 36.9126 88.1768 37.4905C89.2777 38.0683 90.2154 38.9137 90.9036 39.9487L96.4015 48.0091C96.5051 48.1499 96.5665 48.3172 96.5786 48.4915C96.5907 48.6659 96.5529 48.8401 96.4697 48.9938C96.301 49.339 96.0434 49.633 95.7234 49.8458C95.418 50.052 95.064 50.1747 94.6964 50.2015C94.5224 50.2243 94.3454 50.1969 94.1865 50.1224C94.0275 50.048 93.8932 49.9297 93.7993 49.7815L88.3069 41.7293C87.8815 41.1074 87.2942 40.6134 86.6084 40.3006C85.914 39.9714 85.1533 39.8059 84.3849 39.8168C83.6202 39.8237 82.8752 40.0597 82.2463 40.4944C81.6776 40.8863 81.2212 41.42 80.9224 42.0425C80.5972 42.7018 80.4472 43.4335 80.4867 44.1674C80.5444 45.0023 80.8368 45.8039 81.3303 46.4799L86.8282 54.5404C86.9097 54.676 86.9577 54.8291 86.9682 54.987C86.9788 55.1449 86.9515 55.303 86.8887 55.4483C86.7545 55.8323 86.4944 56.1599 86.1507 56.3779Z" fill="#144E94"/>
<path d="M115.112 32.471C114.832 32.5932 114.521 32.6253 114.221 32.5626C114.074 32.5325 113.937 32.4649 113.823 32.3664C113.71 32.268 113.624 32.1419 113.573 32.0004C112.808 30.1851 111.974 28.3006 111.071 26.347C110.168 24.3934 109.263 22.4432 108.354 20.4964C107.445 18.5468 106.61 16.669 105.849 14.8628C105.749 14.6612 105.696 14.4399 105.693 14.215C105.69 13.9902 105.737 13.7676 105.831 13.5634C106.03 13.1687 106.368 12.862 106.781 12.703C107.181 12.5265 107.631 12.5006 108.049 12.6301C108.264 12.7007 108.461 12.8197 108.623 12.9779C108.785 13.1361 108.909 13.3294 108.985 13.5429C109.746 15.3491 110.51 17.2568 111.278 19.2659C112.045 21.275 112.809 23.2857 113.569 25.2979C114.33 27.3098 115.093 29.2241 115.858 31.0407C115.924 31.1814 115.95 31.3376 115.933 31.492C115.916 31.6465 115.857 31.7933 115.762 31.9163C115.601 32.1575 115.376 32.3494 115.112 32.471ZM117.813 38.7797C117.57 38.8903 117.307 38.9477 117.04 38.948C116.773 38.9483 116.509 38.8915 116.267 38.7815C115.786 38.5794 115.405 38.1951 115.208 37.7127C115.102 37.4753 115.045 37.2191 115.04 36.9593C115.035 36.6994 115.082 36.4412 115.178 36.1999C115.274 35.9527 115.42 35.7283 115.608 35.5411C115.795 35.3539 116.02 35.2082 116.267 35.1132C116.502 35.0122 116.755 34.9604 117.011 34.9609C117.266 34.9614 117.519 35.0142 117.754 35.116C117.997 35.2113 118.219 35.3554 118.405 35.5396C118.59 35.7237 118.736 35.9439 118.834 36.1866C118.937 36.425 118.99 36.6817 118.992 36.9413C118.993 37.2009 118.942 37.4581 118.842 37.6976C118.755 37.9398 118.619 38.1611 118.442 38.3475C118.265 38.5339 118.05 38.6811 117.813 38.7797Z" fill="#144E94"/>
</svg>
